<svg width="100" height="100" viewBox="0 0 100 100" fill="none" xmlns="http://www.w3.org/2000/svg">
<path d="M34.304 62L24.434 35.708H24.266C24.322 36.268 24.364 36.982 24.392 37.85C24.448 38.718 24.49 39.67 24.518 40.706C24.546 41.714 24.56 42.75 24.56 43.814V62H21.074V32.012H26.66L35.9 56.582H36.068L45.476 32.012H51.02V62H47.282V43.562C47.282 42.582 47.296 41.616 47.324 40.664C47.352 39.684 47.394 38.774 47.45 37.934C47.506 37.066 47.548 36.338 47.576 35.75H47.408L37.412 62H34.304ZM72.0295 34.91C70.4335 34.91 68.9915 35.19 67.7035 35.75C66.4155 36.282 65.3235 37.08 64.4275 38.144C63.5315 39.18 62.8455 40.454 62.3695 41.966C61.8935 43.45 61.6555 45.13 61.6555 47.006C61.6555 49.47 62.0335 51.612 62.7895 53.432C63.5735 55.252 64.7215 56.652 66.2335 57.632C67.7735 58.612 69.6915 59.102 71.9875 59.102C73.3035 59.102 74.5495 58.99 75.7255 58.766C76.9015 58.542 78.0495 58.262 79.1695 57.926V61.202C78.0495 61.622 76.8875 61.93 75.6835 62.126C74.5075 62.322 73.0935 62.42 71.4415 62.42C68.3895 62.42 65.8415 61.79 63.7975 60.53C61.7535 59.27 60.2135 57.478 59.1775 55.154C58.1695 52.83 57.6655 50.1 57.6655 46.964C57.6655 44.696 57.9735 42.624 58.5895 40.748C59.2335 38.872 60.1575 37.248 61.3615 35.876C62.5935 34.504 64.1055 33.454 65.8975 32.726C67.6895 31.97 69.7475 31.592 72.0715 31.592C73.6115 31.592 75.0955 31.746 76.5235 32.054C77.9515 32.362 79.2255 32.796 80.3455 33.356L78.8335 36.548C77.9095 36.128 76.8735 35.75 75.7255 35.414C74.6055 35.078 73.3735 34.91 72.0295 34.91Z" fill="black"/>
</svg>
